<svg id="Layer_3" enable-background="new 0 0 64 64" height="512" viewBox="0 0 64 64" width="512" xmlns="http://www.w3.org/2000/svg"><path d="m36 47c-2.206 0-4 1.794-4 4 0 .706.197 1.393.554 2-.357.607-.554 1.294-.554 2 0 2.206 1.794 4 4 4s4-1.794 4-4c0-.706-.197-1.393-.554-2 .357-.607.554-1.294.554-2 0-2.206-1.794-4-4-4zm0 2c1.103 0 2 .897 2 2 0 .485-.186.957-.521 1.331-.779.862-2.178.862-2.958 0-.335-.374-.521-.846-.521-1.331 0-1.103.897-2 2-2zm0 8c-1.103 0-2-.897-2-2 0-.172.023-.342.068-.507 1.176.658 2.688.658 3.863 0 .046.165.069.335.069.507 0 1.103-.897 2-2 2z"/><path d="m49 57v2c2.757 0 5-2.243 5-5s-2.243-5-5-5v2c1.654 0 3 1.346 3 3s-1.346 3-3 3z"/><path d="m49 45v2c3.859 0 7 3.141 7 7s-3.141 7-7 7v2c4.963 0 9-4.037 9-9s-4.037-9-9-9z"/><path d="m10 54c0 2.757 2.243 5 5 5v-2c-1.654 0-3-1.346-3-3s1.346-3 3-3v-2c-2.757 0-5 2.243-5 5z"/><path d="m6 54c0 4.963 4.037 9 9 9v-2c-3.859 0-7-3.141-7-7s3.141-7 7-7v-2c-4.963 0-9 4.037-9 9z"/><path d="m21 19h22v-14h-22zm20-12v2h-2v2h2v2h-2v2h2v2h-18v-2h2v-2h-2v-2h2v-2h-2v-2z"/><path d="m22 41h20v-20h-20zm2-6h4v4h-4zm10-6v4h-4v-4zm-4-2v-4h4v4zm6 2h4v4h-4zm-2 6v4h-4v-4zm-6-2h-4v-4h4zm8 6v-4h4v4zm4-12h-4v-4h4zm-12-4v4h-4v-4z"/><path d="m24 57h2v2h-2z"/><path d="m24 51h2v2h-2z"/><path d="m51 39v-22c0-1.654-1.346-3-3-3h-1v-8c0-2.757-2.243-5-5-5h-20c-2.757 0-5 2.243-5 5l.001 14.042.92 22.083c.054 1.29.913 2.344 2.079 2.719v15.156c0 1.654 1.346 3 3 3h18c1.654 0 3-1.346 3-3v-15.156c1.166-.374 2.025-1.429 2.079-2.719l.005-.125h1.916c1.654 0 3-1.346 3-3zm-10 22h-18c-.552 0-1-.448-1-1v-15h2v2h2v-2h2v14h2v-14h12v15c0 .552-.448 1-1 1zm2.082-18h-22.164c-.538 0-.977-.421-.999-.959l-.919-22.041v-14c0-1.654 1.346-3 3-3h20c1.654 0 3 1.346 3 3l.001 13.958-.92 22.083c-.022.538-.461.959-.999.959zm3.918-23v-4h1c.552 0 1 .449 1 1v22c0 .552-.448 1-1 1h-1.832z"/></svg>